<?xml version="1.0" encoding="UTF-8"?>
<svg version="1.1" xmlns="http://www.w3.org/2000/svg" width="512" height="512">
<path d="M0 0 C0.72958347 -0.00453111 1.45916694 -0.00906223 2.210859 -0.01373065 C4.65041832 -0.02636949 7.08975425 -0.02475462 9.52934265 -0.02310181 C11.2806273 -0.02908741 13.03190932 -0.03589303 14.78318787 -0.04345703 C19.53742366 -0.06112165 24.29158746 -0.06581263 29.0458529 -0.0670886 C32.01740469 -0.06851057 34.98893821 -0.07278105 37.96048546 -0.07808304 C48.33094316 -0.09658529 58.70134946 -0.10475346 69.07182312 -0.10317993 C78.73247081 -0.10197869 88.39289502 -0.12307723 98.05348617 -0.15466726 C106.35259243 -0.18083634 114.65162574 -0.19154695 122.95077294 -0.19026911 C127.90524316 -0.18975964 132.8595148 -0.19543478 137.81394386 -0.21662521 C142.47534565 -0.23601804 147.13635964 -0.23612492 151.79777527 -0.22159195 C153.50534826 -0.219504 155.21294558 -0.22420391 156.92047691 -0.23631287 C174.38543042 -0.3521105 174.38543042 -0.3521105 181.8992157 6.23226929 C182.43804382 6.88324585 182.97687195 7.53422241 183.5320282 8.20492554 C184.08632507 8.85332397 184.64062195 9.50172241 185.2117157 10.16976929 C188.46537132 14.89196677 188.90986383 18.92969498 188.92445374 24.61039734 C188.92898485 25.33998081 188.93351596 26.06956428 188.93818438 26.82125634 C188.95082322 29.26081566 188.94920836 31.70015159 188.94755554 34.13973999 C188.95354114 35.89102464 188.96034676 37.64230666 188.96791077 39.39358521 C188.98557539 44.147821 188.99026636 48.9019848 188.99154234 53.65625024 C188.99296431 56.62780203 188.99723479 59.59933554 189.00253677 62.5708828 C189.02103903 72.9413405 189.0292072 83.3117468 189.02763367 93.68222046 C189.02643242 103.34286815 189.04753097 113.00329236 189.07912099 122.66388351 C189.10529007 130.96298977 189.11600069 139.26202308 189.11472285 147.56117028 C189.11421337 152.5156405 189.11988851 157.46991214 189.14107895 162.4243412 C189.16047178 167.08574299 189.16057866 171.74675698 189.14604568 176.40817261 C189.14395774 178.1157456 189.14865765 179.82334292 189.1607666 181.53087425 C189.27518675 198.78807192 189.27518675 198.78807192 182.98124695 206.25570679 C176.2797295 211.67769823 170.42017134 213.9279259 161.72343445 213.67758179 C154.17203404 212.66752186 148.55206719 208.95200848 143.8132782 203.11117554 C141.4322346 199.31437629 140.40862853 195.88007411 140.3785553 191.41419983 C140.36739182 190.46494125 140.35622833 189.51568268 140.34472656 188.53765869 C140.34256638 187.50835236 140.34040619 186.47904602 140.33818054 185.41854858 C140.32311211 183.77885353 140.32311211 183.77885353 140.30773926 182.10603333 C140.27687738 178.4970756 140.2598635 174.88819217 140.2429657 171.27914429 C140.2242565 168.77521626 140.20468328 166.27129456 140.1842804 163.76737976 C140.13817446 157.85311218 140.10077555 151.93883024 140.06760752 146.02447969 C140.02559403 138.62818118 139.97003927 131.23199474 139.9148407 123.83578491 C139.81804353 110.64639275 139.73327439 97.45695169 139.6570282 84.26742554 C138.83649523 85.09348927 138.01596226 85.91955299 137.17056465 86.77064896 C117.67593344 106.39533091 98.16572984 126.00441877 78.63633598 145.59450974 C76.23068394 148.00766568 73.82516316 150.42095242 71.41972351 152.83432007 C70.94085764 153.3147598 70.46199176 153.79519954 69.9686148 154.29019806 C62.22328401 162.06161044 54.48862583 169.84356155 46.75788547 177.62948504 C38.82049172 185.62306127 30.8714501 193.60492295 22.91221893 201.57676578 C18.44397026 206.05283147 13.98114095 210.53401324 9.53087234 215.02796173 C5.33979341 219.2598407 1.13476474 223.4773424 -3.08126259 227.68436241 C-4.62395296 229.22870004 -6.16152953 230.77816612 -7.69347572 232.33316231 C-9.79137441 234.46106037 -11.90716227 236.56947027 -14.02824402 238.67422485 C-14.92421541 239.59641182 -14.92421541 239.59641182 -15.83828723 240.53722882 C-21.38951919 245.9742669 -28.02122865 249.23893963 -35.8429718 249.76742554 C-43.10144426 249.35705254 -49.29450582 246.84978495 -54.2804718 241.51742554 C-58.87456438 235.65562345 -60.94078969 229.96353874 -60.62031555 222.49008179 C-59.26636112 211.63937656 -51.00588614 204.77314868 -43.61679077 197.42098999 C-42.97785918 196.78120398 -42.33892759 196.14141796 -41.68063444 195.48224449 C-39.56271108 193.36268852 -37.44126046 191.24670038 -35.31977844 189.13070679 C-33.79145682 187.60266754 -32.26335596 186.07440746 -30.73545837 184.54594421 C-26.60394288 180.41414272 -22.46935928 176.28542395 -18.33420491 172.15726471 C-14.00691704 167.83624324 -9.68247542 163.51237515 -5.35772705 159.18881226 C2.82466505 151.00952379 11.00960215 142.83278703 19.19546372 134.65697098 C28.5178633 125.3457626 37.83741143 116.03170243 47.15672481 106.71740532 C66.32032844 87.56424417 85.48749819 68.4146551 104.6570282 49.26742554 C104.09418184 49.26688077 103.53133549 49.266336 102.95143318 49.26577473 C89.21990037 49.25077009 75.48869492 49.20786131 61.75734138 49.13533497 C55.11671629 49.10109489 48.476457 49.07595958 41.83573914 49.0718689 C35.42293435 49.06757968 29.01064667 49.03906377 22.59800339 48.99399376 C20.155725 48.98103894 17.71338467 48.97670388 15.2710762 48.98127174 C11.84073309 48.9861917 8.41189319 48.96002024 4.98173523 48.92684937 C3.97975601 48.93547501 2.97777679 48.94410065 1.94543457 48.95298767 C-5.77201614 48.82849877 -12.76998248 46.95234849 -18.28848076 41.26096821 C-23.28993626 35.04798678 -24.89034773 29.06485088 -24.7179718 21.14633179 C-23.74985922 13.71405079 -19.91795133 8.07354101 -14.1867218 3.42367554 C-9.48634331 0.47598055 -5.51285261 0.01415881 0 0 Z " fill="#000000" transform="translate(323.3429718017578,-0.267425537109375)"/>
<path d="M0 0 C5.85787082 3.44694547 9.8950212 8.86636484 11.9296875 15.32421875 C13.35441484 22.11413555 12.67603619 28.28232716 9.36328125 34.390625 C5.20598518 39.69604382 0.40939632 44.48862024 -4.36289978 49.23706055 C-5.32129716 50.19673957 -5.32129716 50.19673957 -6.29905611 51.17580605 C-8.41697947 53.29536202 -10.53843009 55.41135015 -12.65991211 57.52734375 C-14.18823373 59.055383 -15.71633459 60.58364308 -17.24423218 62.11210632 C-21.37574767 66.24390782 -25.51033128 70.37262659 -29.64548564 74.50078583 C-33.97277351 78.8218073 -38.29721513 83.14567539 -42.6219635 87.46923828 C-50.8043556 95.64852675 -58.9892927 103.82526351 -67.17515427 112.00107956 C-76.49755385 121.31228794 -85.81710198 130.62634811 -95.13641536 139.94064522 C-114.30001899 159.09380636 -133.46718874 178.24339544 -152.63671875 197.390625 C-152.07387239 197.39116977 -151.51102604 197.39171453 -150.93112373 197.39227581 C-137.19959092 197.40728045 -123.46838547 197.45018923 -109.73703194 197.52271557 C-103.09640684 197.55695565 -96.45614755 197.58209095 -89.81542969 197.58618164 C-83.4026249 197.59047086 -76.99033722 197.61898677 -70.57769394 197.66405678 C-68.13541555 197.6770116 -65.69307523 197.68134666 -63.25076675 197.67677879 C-59.82042364 197.67185883 -56.39158374 197.6980303 -52.96142578 197.73120117 C-51.95944656 197.72257553 -50.95746735 197.71394989 -49.92512512 197.70506287 C-42.20767441 197.82955177 -35.20970807 199.70570205 -29.69120979 205.39708233 C-24.68975429 211.61006376 -23.08934282 217.59319966 -23.26171875 225.51171875 C-24.22983134 232.94399975 -28.06173922 238.58450953 -33.79296875 243.234375 C-38.49334724 246.18206998 -42.46683794 246.64389172 -47.97969055 246.65805054 C-48.70927402 246.66258165 -49.43885749 246.66711276 -50.19054955 246.67178118 C-52.63010888 246.68442003 -55.0694448 246.68280516 -57.5090332 246.68115234 C-59.26031786 246.68713795 -61.01159987 246.69394357 -62.76287842 246.70150757 C-67.51711421 246.71917219 -72.27127801 246.72386316 -77.02554345 246.72513914 C-79.99709525 246.72656111 -82.96862876 246.73083159 -85.94017601 246.73613358 C-96.31063371 246.75463583 -106.68104001 246.762804 -117.05151367 246.76123047 C-126.71216136 246.76002922 -136.37258558 246.78112777 -146.03317672 246.8127178 C-154.33228298 246.83888688 -162.63131629 246.84959749 -170.93046349 246.84831965 C-175.88493372 246.84781017 -180.83920535 246.85348532 -185.79363441 246.87467575 C-190.4550362 246.89406858 -195.1160502 246.89417546 -199.77746582 246.87964249 C-201.48503881 246.87755454 -203.19263613 246.88225445 -204.90016747 246.8943634 C-222.36512097 247.01016103 -222.36512097 247.01016103 -229.87890625 240.42578125 C-230.68714844 239.44931641 -230.68714844 239.44931641 -231.51171875 238.453125 C-232.06601563 237.80472656 -232.6203125 237.15632812 -233.19140625 236.48828125 C-236.44506187 231.76608376 -236.88955438 227.72835556 -236.90414429 222.0476532 C-236.9086754 221.31806973 -236.91320651 220.58848626 -236.91787493 219.8367942 C-236.93051378 217.39723487 -236.92889891 214.95789895 -236.92724609 212.51831055 C-236.9332317 210.76702589 -236.94003732 209.01574388 -236.94760132 207.26446533 C-236.96526594 202.51022954 -236.96995691 197.75606574 -236.97123289 193.0018003 C-236.97265486 190.0302485 -236.97692534 187.05871499 -236.98222733 184.08716774 C-237.00072958 173.71671004 -237.00889775 163.34630374 -237.00732422 152.97583008 C-237.00612297 143.31518239 -237.02722152 133.65475817 -237.05881155 123.99416703 C-237.08498063 115.69506077 -237.09569124 107.39602746 -237.0944134 99.09688026 C-237.09390392 94.14241003 -237.09957907 89.1881384 -237.1207695 84.23370934 C-237.14016233 79.57230755 -237.14026921 74.91129355 -237.12573624 70.24987793 C-237.12364829 68.54230494 -237.1283482 66.83470762 -237.14045715 65.12717628 C-237.2548773 47.86997862 -237.2548773 47.86997862 -230.9609375 40.40234375 C-224.25942005 34.9803523 -218.3998619 32.73012463 -209.703125 32.98046875 C-202.1517246 33.99052868 -196.53175774 37.70604205 -191.79296875 43.546875 C-189.41192515 47.34367425 -188.38831908 50.77797643 -188.35824585 55.24385071 C-188.34708237 56.19310928 -188.33591888 57.14236786 -188.32441711 58.12039185 C-188.32225693 59.14969818 -188.32009674 60.17900452 -188.31787109 61.23950195 C-188.30782547 62.33263199 -188.29777985 63.42576202 -188.28742981 64.55201721 C-188.25656793 68.16097494 -188.23955406 71.76985836 -188.22265625 75.37890625 C-188.20394705 77.88283427 -188.18437383 80.38675598 -188.16397095 82.89067078 C-188.11786501 88.80493836 -188.08046611 94.7192203 -188.04729807 100.63357085 C-188.00528458 108.02986936 -187.94972982 115.4260558 -187.89453125 122.82226562 C-187.79773408 136.01165778 -187.71296495 149.20109885 -187.63671875 162.390625 C-186.40591929 161.15152941 -186.40591929 161.15152941 -185.1502552 159.88740158 C-165.65562399 140.26271963 -146.14542039 120.65363177 -126.61602653 101.0635408 C-124.21037449 98.65038486 -121.80485371 96.23709811 -119.39941406 93.82373047 C-118.92054819 93.34329073 -118.44168231 92.862851 -117.94830535 92.36785248 C-110.20297456 84.5964401 -102.46831638 76.81448899 -94.73757602 69.0285655 C-86.80018228 61.03498926 -78.85114065 53.05312759 -70.89190948 45.08128476 C-66.42366081 40.60521907 -61.9608315 36.1240373 -57.5105629 31.63008881 C-53.31948396 27.39820984 -49.11445529 23.18070813 -44.89842796 18.97368813 C-43.3557376 17.4293505 -41.81816102 15.87988442 -40.28621483 14.32488823 C-38.18831614 12.19699017 -36.07252828 10.08858027 -33.95144653 7.98382568 C-33.05547514 7.06163872 -33.05547514 7.06163872 -32.14140332 6.12082171 C-22.99141061 -2.84094734 -11.70378111 -5.16932167 0 0 Z " fill="#000000" transform="translate(236.63671875,265.609375)"/>
</svg>
